<svg width="61" height="61" viewBox="0 0 61 61" fill="none" xmlns="http://www.w3.org/2000/svg">
<path d="M61 30.5C61 47.3447 47.3447 61 30.5 61C13.6553 61 0 47.3447 0 30.5C0 13.6553 13.6553 0 30.5 0C47.3447 0 61 13.6553 61 30.5Z" fill="#EFA73E"/>
<path d="M21.614 43L23.738 34.936H16.16L16.7 32.902H24.314L25.97 26.62H18.392L18.932 24.604H26.528L28.526 17.08H30.632L28.616 24.604H35.168L37.166 17.08H39.272L37.256 24.604H44.834L44.312 26.62H36.716L35.024 32.902H42.602L42.08 34.936H34.484L32.324 43H30.254L32.378 34.936H25.844L23.684 43H21.614ZM26.384 32.902H32.936L34.61 26.62H28.076L26.384 32.902Z" fill="white"/>
</svg>
