<svg width="93" height="38" viewBox="0 0 93 38" fill="none" xmlns="http://www.w3.org/2000/svg">
<path d="M0.5 37V0.999999H22.175V7.025H6.525V16H19.175V22H6.525V37H0.5ZM27.1719 5.9V0.374999H33.1969V5.9H27.1719ZM27.1719 37V10H33.1969V37H27.1719ZM41.1855 37V0.999999H47.2105V31.35H63.1105V37H41.1855ZM79.2707 37.75C76.5707 37.75 74.2124 37.1417 72.1957 35.925C70.179 34.7083 68.6124 33.0333 67.4957 30.9C66.3957 28.75 65.8457 26.2833 65.8457 23.5C65.8457 20.6667 66.4124 18.1833 67.5457 16.05C68.679 13.9167 70.254 12.25 72.2707 11.05C74.2874 9.85 76.6207 9.25 79.2707 9.25C81.9874 9.25 84.354 9.85833 86.3707 11.075C88.3874 12.2917 89.954 13.975 91.0707 16.125C92.1874 18.2583 92.7457 20.7167 92.7457 23.5C92.7457 26.3 92.179 28.775 91.0457 30.925C89.929 33.0583 88.3624 34.7333 86.3457 35.95C84.329 37.15 81.9707 37.75 79.2707 37.75ZM79.2707 32.1C81.6707 32.1 83.454 31.3 84.6207 29.7C85.7874 28.1 86.3707 26.0333 86.3707 23.5C86.3707 20.8833 85.779 18.8 84.5957 17.25C83.4124 15.6833 81.6374 14.9 79.2707 14.9C77.654 14.9 76.3207 15.2667 75.2707 16C74.2374 16.7167 73.4707 17.725 72.9707 19.025C72.4707 20.3083 72.2207 21.8 72.2207 23.5C72.2207 26.1167 72.8124 28.2083 73.9957 29.775C75.1957 31.325 76.954 32.1 79.2707 32.1Z" fill="url(#paint0_linear_365_58)"/>
<defs>
<linearGradient id="paint0_linear_365_58" x1="49" y1="-16" x2="49" y2="55" gradientUnits="userSpaceOnUse">
<stop offset="0.463542" stop-color="#0972AF"/>
<stop offset="1" stop-color="#1873A8" stop-opacity="0"/>
</linearGradient>
</defs>
</svg>
