<svg width="53" height="53" viewBox="0 0 53 53" fill="none" xmlns="http://www.w3.org/2000/svg">
<path d="M41.3027 39.7707C39.015 35.7957 34.7191 33.125 29.8125 33.125H23.1875C18.2809 33.125 13.985 35.7957 11.6973 39.7707C15.341 43.8285 20.6203 46.375 26.5 46.375C32.3797 46.375 37.659 43.8182 41.3027 39.7707ZM0 26.5C0 19.4718 2.79196 12.7314 7.76167 7.76167C12.7314 2.79196 19.4718 0 26.5 0C33.5282 0 40.2686 2.79196 45.2383 7.76167C50.208 12.7314 53 19.4718 53 26.5C53 33.5282 50.208 40.2686 45.2383 45.2383C40.2686 50.208 33.5282 53 26.5 53C19.4718 53 12.7314 50.208 7.76167 45.2383C2.79196 40.2686 0 33.5282 0 26.5ZM26.5 28.1562C28.4767 28.1562 30.3724 27.371 31.7702 25.9733C33.1679 24.5755 33.9531 22.6798 33.9531 20.7031C33.9531 18.7264 33.1679 16.8307 31.7702 15.433C30.3724 14.0352 28.4767 13.25 26.5 13.25C24.5233 13.25 22.6276 14.0352 21.2298 15.433C19.8321 16.8307 19.0469 18.7264 19.0469 20.7031C19.0469 22.6798 19.8321 24.5755 21.2298 25.9733C22.6276 27.371 24.5233 28.1562 26.5 28.1562Z" fill="url(#paint0_linear_191_120)"/>
<defs>
<linearGradient id="paint0_linear_191_120" x1="27" y1="1.05169e-08" x2="26.5" y2="53" gradientUnits="userSpaceOnUse">
<stop stop-color="#1480BC"/>
<stop offset="0.515625" stop-color="#1480BC"/>
</linearGradient>
</defs>
</svg>
