<svg width="30" height="28" viewBox="0 0 30 28" fill="none" xmlns="http://www.w3.org/2000/svg">
<path d="M2.78906 16.5614L13.377 27.3496C13.8164 27.7973 14.3965 28.0064 15 28.0064C15.6035 28.0064 16.1836 27.7973 16.623 27.3496L27.2109 16.5614C28.9922 14.7517 30 12.2129 30 9.55904V9.18814C30 4.71812 27.041 0.906739 23.0039 0.171328C20.332 -0.314682 17.6133 0.63817 15.7031 2.7229L15 3.49028L14.2969 2.7229C12.3867 0.63817 9.66797 -0.314682 6.99609 0.171328C2.95898 0.906739 0 4.71812 0 9.18814V9.55904C0 12.2129 1.00781 14.7517 2.78906 16.5614Z" fill="#FF3C3C"/>
<path d="M13.2305 27.238L13.084 27.0908L2.81836 16.6727C1.01953 14.8478 0 12.2864 0 9.60344V9.39213C0 4.88425 2.92969 1.01673 6.98438 0.1715C9.29297 -0.315146 11.6543 0.26755 13.5352 1.71468C14.0625 2.12449 14.5547 2.59833 15 3.14261C15.2461 2.83525 15.5098 2.55351 15.791 2.29098C16.0078 2.08607 16.2305 1.89397 16.4648 1.71468C18.3457 0.26755 20.707 -0.315146 23.0156 0.165097C27.0703 1.01033 30 4.68025 30 9.18814V9.60344C30 12.2864 28.9805 14.8478 27.1816 16.6727L16.916 27.0908L16.7695 27.238C16.2891 27.7247 15.6562 28.0064 15 28.0064C14.3438 28.0064 13.7109 27.7311 13.2305 27.238ZM14.0098 6.54272C13.9863 6.52351 13.9688 6.49789 13.9512 6.47228L12.9082 5.19164L12.9023 5.18524C11.5488 3.5268 9.50391 2.77122 7.51172 3.18743C4.78125 3.75732 2.8125 6.35699 2.8125 9.39213V9.60344C2.8125 11.4284 3.50977 13.1765 4.73438 14.4187L15 24.8368L25.2656 14.4187C26.4902 13.1765 27.1875 11.4284 27.1875 9.60344C27.1875 6.5747 25.2188 3.75732 22.4941 3.18743C20.502 2.77122 18.4512 3.5332 17.1035 5.18524C17.1035 5.18524 17.1035 5.18524 17.0977 5.19164C17.0918 5.19805 17.0977 5.19164 17.0918 5.19805L16.0488 6.47868C16.0312 6.5043 16.0078 6.52351 15.9902 6.54912C15.7266 6.83726 15.3691 6.99734 15 6.99734C14.6309 6.99734 14.2734 6.83726 14.0098 6.54912V6.54272Z" fill="black"/>
</svg>
